<?xml version="1.0" encoding="utf-8"?>
<!-- Generator: Adobe Illustrator 26.0.0, SVG Export Plug-In . SVG Version: 6.00 Build 0)  -->
<svg version="1.1" id="Calque_1" xmlns="http://www.w3.org/2000/svg" xmlns:xlink="http://www.w3.org/1999/xlink" x="0px" y="0px"
	 viewBox="0 0 660 310" style="enable-background:new 0 0 660 310;" xml:space="preserve">
<style type="text/css">
	.st0{fill:#34A755;}
	.st1{clip-path:url(#SVGID_00000137100933059892026900000004561466171084003511_);}
	.st2{fill:#4385F5;}
	.st3{fill:#ED4235;}
	.st4{clip-path:url(#SVGID_00000018956430736895597590000004536910512163005612_);}
	.st5{fill:#FABD05;}
</style>
<g>
	<g>
		<path class="st0" d="M530.58,146.04c-4.42,6.62-9.74,12.47-15.98,17.54c-6.24,5.07-12.99,9.16-20.26,12.28l53.93,69.08
			c1.04-2.89,2.37-5.63,3.96-8.2l-47.53-60.87c7.27-3.12,14.03-7.21,20.26-12.28c6.24-5.07,11.56-10.91,15.98-17.54
			c4.41-6.62,7.86-13.9,10.33-21.82c2.47-7.92,3.7-16.3,3.7-25.14c0-11.43-2.08-22.15-6.24-32.15c-4.16-10-9.81-18.71-16.95-26.11
			c-7.15-7.4-15.59-13.25-25.33-17.54c-9.74-4.29-20.07-6.43-30.98-6.43h-10.36c10.91,0,21.24,2.14,30.98,6.43
			c9.74,4.29,18.18,10.13,25.33,17.54c7.14,7.4,12.79,16.11,16.95,26.11c4.15,10.01,6.24,20.72,6.24,32.15
			c0,8.84-1.24,17.21-3.7,25.14C538.43,132.14,534.99,139.41,530.58,146.04z"/>
	</g>
	<path class="st0" d="M589.46,226.17c-18.5,0-33.49,14.99-33.49,33.49s15,33.49,33.49,33.49c18.5,0,33.49-15,33.49-33.49
		S607.96,226.17,589.46,226.17z M604.44,276.95H575.6v-6.78l12.97-10.62c1.22-1,2.26-1.9,3.12-2.7c0.85-0.8,1.55-1.56,2.09-2.28
		c0.54-0.72,0.93-1.43,1.17-2.11c0.24-0.69,0.36-1.44,0.36-2.25c0-1.67-0.48-2.93-1.45-3.78c-0.97-0.85-2.23-1.28-3.79-1.28
		c-1.52,0-2.87,0.43-4.04,1.28c-1.17,0.85-2.48,2.17-3.93,3.95l-6.01-4.84c0.96-1.31,1.94-2.47,2.92-3.47
		c0.98-1.01,2.04-1.86,3.17-2.55c1.13-0.69,2.38-1.22,3.76-1.57c1.37-0.35,2.93-0.53,4.68-0.53c2,0,3.83,0.29,5.48,0.86
		c1.65,0.58,3.06,1.38,4.23,2.42c1.17,1.04,2.08,2.3,2.73,3.79c0.65,1.49,0.97,3.14,0.97,4.96v0.11c0,1.63-0.21,3.09-0.64,4.37
		s-1.06,2.49-1.89,3.62c-0.83,1.13-1.9,2.27-3.2,3.4c-1.3,1.13-2.8,2.37-4.51,3.7l-6.35,4.9h16.98V276.95z"/>
</g>
<g>
	<g>
		<path class="st0" d="M576.48,33.14h-13.36V26.4h34.19v6.73h-13.15v35.25h-7.68V33.14z M602.15,26.4h11.68l9.15,31.35h0.21
			l8.94-31.35h11.57v41.98h-7.15v-34.4h-0.21l-9.78,34.4h-7.05l-9.99-34.61h-0.21v34.61h-7.15V26.4z"/>
	</g>
</g>
<g>
	<defs>
		<path id="SVGID_1_" d="M250.97,16.85h38.77c8.39,0,14.06,8.55,10.8,16.28L193.91,285.99c-1.83,4.34-6.09,7.17-10.8,7.17h-49.52
			c-4.72,0-8.98-2.83-10.81-7.18L16.51,33.11c-3.25-7.73,2.43-16.26,10.81-16.26h38.79c4.76,0,9.04,2.88,10.85,7.28l81.59,199.26
			l81.59-199.26C241.93,19.73,246.22,16.85,250.97,16.85z"/>
	</defs>
	<clipPath id="SVGID_00000039093926969516664700000010753958058233706678_">
		<use xlink:href="#SVGID_1_"  style="overflow:visible;"/>
	</clipPath>
	<g style="clip-path:url(#SVGID_00000039093926969516664700000010753958058233706678_);">
		
			<rect x="-7.22" y="-210.57" transform="matrix(0.9261 0.3774 -0.3774 0.9261 36.5078 -32.5418)" class="st2" width="217.05" height="574.93"/>
		
			<rect x="193.78" y="-128.66" transform="matrix(0.9261 0.3774 -0.3774 0.9261 82.2754 -102.3358)" class="st3" width="217.05" height="574.93"/>
	</g>
</g>
<g>
	<defs>
		<path id="SVGID_00000090985042595452797270000013558934906855750546_" d="M524.18,99.08c0,8.84-1.24,17.21-3.7,25.14
			c-2.47,7.93-5.91,15.2-10.33,21.82c-4.42,6.63-9.74,12.47-15.98,17.54c-6.24,5.07-12.99,9.16-20.26,12.28l76.8,98.37
			c6.01,7.7,0.52,18.93-9.24,18.93H502.3c-3.65,0-7.09-1.7-9.31-4.6l-81.83-106.86h-26.5v99.74c0,6.47-5.25,11.72-11.72,11.72
			h-35.79c-6.47,0-11.72-5.25-11.72-11.72V28.57c0-6.47,5.25-11.72,11.72-11.72h107.53c10.91,0,21.24,2.14,30.98,6.43
			s18.18,10.13,25.33,17.54c7.14,7.4,12.79,16.11,16.95,26.11C522.1,76.93,524.18,87.65,524.18,99.08z M437.28,127.91
			c7.53,0,14.03-2.79,19.49-8.38c5.46-5.58,8.18-12.4,8.18-20.46c0-7.79-2.73-14.48-8.18-20.07c-5.46-5.58-11.95-8.38-19.49-8.38
			h-52.61v57.29H437.28z"/>
	</defs>
	<clipPath id="SVGID_00000138574195458380127080000001190574631312465307_">
		<use xlink:href="#SVGID_00000090985042595452797270000013558934906855750546_"  style="overflow:visible;"/>
	</clipPath>
	<g style="clip-path:url(#SVGID_00000138574195458380127080000001190574631312465307_);">
		<rect x="139.82" y="-103.93" class="st5" width="245.26" height="574.93"/>
		<rect x="385.08" y="-104.12" class="st0" width="245.26" height="574.93"/>
	</g>
</g>
</svg>
